<svg width="943" height="500" viewBox="0 0 943 500" fill="none" xmlns="http://www.w3.org/2000/svg">
<path d="M620.328 226.053H688.755C665.308 257.348 645.45 296.941 635.162 332.741H733.736V226.053H777.759V166.782H620.328V226.053ZM509.792 332.741H623.199V273.47H554.772C578.219 242.174 598.077 202.581 608.365 166.782H509.791V332.741H509.792ZM386.335 249.761C386.335 225.341 394.47 212.776 410.5 212.776C426.53 212.776 434.665 225.341 434.665 249.761C434.665 274.181 426.53 286.746 410.5 286.746C394.47 286.746 386.335 274.181 386.335 249.761V249.761ZM226.033 234.588V205.663H240.15C249.48 205.663 254.266 210.642 254.266 220.125C254.266 229.609 249.48 234.588 240.15 234.588H226.033V234.588ZM226.033 293.859V263.038H241.107C251.156 263.038 256.18 268.253 256.18 278.448C256.18 288.643 251.156 293.859 241.107 293.859H226.033ZM165.741 332.741H262.401C295.179 332.741 317.429 313.3 317.429 284.85C317.429 267.069 307.859 254.74 289.197 246.916C305.467 239.33 313.123 227.001 313.123 211.354C313.123 184.8 292.308 166.782 261.683 166.782H165.741V332.741ZM410.5 336.534C462.419 336.534 496.872 301.92 496.872 249.761C496.872 197.602 462.419 162.988 410.5 162.988C358.581 162.988 324.129 197.603 324.129 249.761C324.129 301.92 358.582 336.535 410.5 336.535" fill="#68D8FC" style="fill:#68D8FC;fill:color(display-p3 0.4078 0.8471 0.9882);fill-opacity:1;"/>
</svg>
