<svg width="916" height="149" viewBox="0 0 916 149" fill="none" xmlns="http://www.w3.org/2000/svg">
<path d="M275.921 129.712C275.921 139.928 284.123 148.13 294.34 148.13C304.269 148.13 312.615 139.928 312.615 129.712C312.615 119.783 304.269 111.437 294.34 111.437C284.123 111.437 275.921 119.783 275.921 129.712Z" fill="#0FD23A"/>
<path d="M214.189 0.204102L192.029 22.0765L202.39 31.8615C216.492 45.1 235.774 52.4388 253.761 52.4388C271.748 52.4388 291.03 45.1 305.132 31.8615L315.493 22.0765L293.333 0.204102C278.799 17.6157 263.834 21.5009 253.761 21.5009C243.688 21.5009 228.723 17.6157 214.189 0.204102Z" fill="#0FD23A"/>
<path d="M219.801 127.985V145.253H254.337V129.568C254.337 109.422 272.036 90.2838 292.469 90.4277L309.737 90.5716V58.1947H292.469C253.905 58.1947 219.801 89.4204 219.801 127.985Z" fill="#0FD23A"/>
<path d="M361.186 148.131C335.141 148.131 322.622 136.187 322.622 113.595V41.6466H357.876V61.0727H386.224V87.6937H357.876V107.12C357.876 115.034 363.92 120.071 373.849 120.071C379.605 120.071 383.058 119.063 389.102 115.754V142.087C382.051 145.253 374.137 148.131 361.186 148.131Z" fill="#0FD23A"/>
<path d="M626.927 57.3314C649.663 57.3314 661.606 71.1455 661.606 97.6226V145.253H626.352V105.105C626.352 92.4423 620.883 85.823 610.523 85.823C599.011 85.823 593.111 92.5862 593.111 105.681V145.253H558V41.6466H593.111V81.3622C599.011 65.1018 609.659 57.3314 626.927 57.3314Z" fill="#0FD23A"/>
<path d="M880.397 145.253V41.6466H915.508V145.253H880.397Z" fill="#0FD23A"/>
<path fill-rule="evenodd" clip-rule="evenodd" d="M809.533 109.422C812.986 117.049 820.901 121.509 838.168 121.509C850.831 121.509 859.753 118.344 869.538 112.876V137.77C860.328 143.813 846.083 148.13 829.103 148.13C793.704 148.13 773.846 129.136 773.846 101.939C773.846 76.3256 791.69 57.3312 824.498 57.3312C857.594 57.3312 872.416 74.1672 872.416 99.7809V109.422H809.533ZM808.669 94.025H844.068C842.629 86.6862 837.017 81.7937 826.656 81.7937C816.296 81.7937 810.684 87.1179 808.669 94.025Z" fill="#0FD23A"/>
<path fill-rule="evenodd" clip-rule="evenodd" d="M733.056 121.509C715.788 121.509 707.874 117.049 704.42 109.422H767.303V99.7809C767.303 74.1672 752.482 57.3312 719.386 57.3312C686.577 57.3312 668.734 76.3256 668.734 101.939C668.734 129.136 688.592 148.13 723.99 148.13C740.97 148.13 755.216 143.813 764.425 137.77V112.876C754.64 118.344 745.719 121.509 733.056 121.509ZM738.956 94.025H703.557C705.571 87.1179 711.183 81.7937 721.544 81.7937C731.905 81.7937 737.517 86.6862 738.956 94.025Z" fill="#0FD23A"/>
<path d="M553.714 61.0726H518.603L506.084 111.868L490.399 61.0726H454.712L439.171 111.581L427.228 61.0726H390.534L418.019 145.253H455.288L471.404 94.6007L488.24 145.253H527.093L553.714 61.0726Z" fill="#0FD23A"/>
<path fill-rule="evenodd" clip-rule="evenodd" d="M137.969 148.13C115.521 148.13 99.2606 130.431 99.2606 102.947C99.2606 75.6061 115.953 57.3312 138.688 57.3312C155.956 57.3312 166.461 64.6699 172.648 79.2036V61.0725H207.903V145.252H172.648V126.546C166.748 140.935 155.093 148.13 137.969 148.13ZM135.954 102.803C135.954 113.019 144.444 121.222 155.093 121.222C165.597 121.222 174.087 113.019 174.087 102.803C174.087 92.7299 165.597 84.5278 155.093 84.5278C144.444 84.5278 135.954 92.7299 135.954 102.803Z" fill="#0FD23A"/>
<path d="M0.539062 102.371C0.539062 127.697 19.2457 148.13 55.3639 148.13C69.6097 148.13 81.9849 144.677 92.0577 138.633V113.163C85.8701 116.905 76.0851 120.358 65.8684 120.358C46.4423 120.358 38.6718 112.444 38.6718 102.659C38.6718 92.4421 47.4496 84.9594 65.7245 84.9594C76.6607 84.9594 85.7262 88.5569 91.7699 92.7299V66.3967C83.8556 61.3603 72.6316 57.3312 55.9395 57.3312C20.1091 57.3312 0.539062 76.9012 0.539062 102.371Z" fill="#0FD23A"/>
</svg>
