<svg preserveAspectRatio="xMidYMid meet" width="100%" height="100%" overflow="visible" style="display: block;" viewBox="0 0 97 28" fill="none" xmlns="http://www.w3.org/2000/svg">
<g id="Frame 2087328072">
<g id="Vector" opacity="0.9">
<path d="M4.08464 0.890218C4.18582 0.306172 4.7413 -0.085243 5.32534 0.0159246L18.9808 2.38149C19.5648 2.48268 19.9562 3.03816 19.855 3.62221L19.189 7.46662L14.3005 9.24062C13.7446 9.44234 13.4566 10.0557 13.6565 10.6122L17.0096 19.9517L18.2215 13.0518L15.7863 27.1097C15.6851 27.6938 15.1297 28.0853 14.5456 27.9841L0.890259 25.6185C0.30621 25.5173 -0.0852492 24.9619 0.0159251 24.3778L4.08464 0.890218Z" fill="var(--fill-0, #232323)"/>
<path d="M23.545 5.93525C24.1037 5.73724 24.7172 6.02964 24.9152 6.58834L30.2495 21.6391C30.4475 22.1978 30.1551 22.8113 29.5964 23.0093L20.3916 26.2719C19.8329 26.4699 19.2194 26.1775 19.0214 25.6188L17.0107 19.9457L19.2012 7.47479L23.545 5.93525ZM14.3006 9.24062C14.1164 9.30743 13.9617 9.41944 13.8443 9.55956C13.9665 9.39863 14.1354 9.27029 14.3401 9.19775L17.7215 7.99927L14.3006 9.24062Z" fill="var(--fill-0, #232323)"/>
</g>
<g id="CHEERS" opacity="0.9">
<path d="M38.3197 23.0692C37.0277 23.0692 36.0116 22.8143 35.2712 22.3043C34.5454 21.7944 34.0373 21.1024 33.747 20.2283C33.4566 19.3395 33.3115 18.3197 33.3115 17.1688V10.8531C33.3115 9.64387 33.4566 8.5949 33.747 7.70619C34.0373 6.81748 34.5454 6.13273 35.2712 5.65196C36.0116 5.17118 37.0277 4.93079 38.3197 4.93079C39.5391 4.93079 40.4899 5.14204 41.1722 5.56454C41.869 5.97248 42.3626 6.56252 42.6529 7.33468C42.9432 8.10684 43.0884 9.00283 43.0884 10.0227V11.5087H39.9964V9.97895C39.9964 9.48361 39.9673 9.03197 39.9093 8.62404C39.8657 8.2161 39.7278 7.89559 39.4955 7.66248C39.2778 7.41481 38.8931 7.29097 38.3415 7.29097C37.7898 7.29097 37.3834 7.42209 37.1221 7.68433C36.8753 7.93201 36.7156 8.27438 36.643 8.71145C36.5704 9.13395 36.5342 9.61473 36.5342 10.1538V17.8462C36.5342 18.4873 36.585 19.019 36.6866 19.4415C36.7882 19.8495 36.9697 20.1627 37.231 20.3812C37.5068 20.5852 37.8769 20.6872 38.3415 20.6872C38.8786 20.6872 39.256 20.5633 39.4738 20.3157C39.706 20.0534 39.8512 19.7111 39.9093 19.2886C39.9673 18.8661 39.9964 18.3926 39.9964 17.8681V16.2728H43.0884V17.6932C43.0884 18.7422 42.9505 19.6746 42.6747 20.4905C42.3989 21.2918 41.9125 21.9255 41.2158 22.3918C40.5335 22.8434 39.5681 23.0692 38.3197 23.0692Z" fill="var(--fill-0, #232323)"/>
<path d="M45.1579 22.8288V5.12747H48.3588V12.5358H51.9734V5.12747H55.1743V22.8288H51.9734V14.8304H48.3588V22.8288H45.1579Z" fill="var(--fill-0, #232323)"/>
<path d="M57.6553 22.8288V5.12747H65.0587V7.40024H60.8779V12.4921H64.1659V14.743H60.8779V20.5998H65.1023V22.8288H57.6553Z" fill="var(--fill-0, #232323)"/>
<path d="M66.7514 22.8288V5.12747H74.1548V7.40024H69.974V12.4921H73.262V14.743H69.974V20.5998H74.1984V22.8288H66.7514Z" fill="var(--fill-0, #232323)"/>
<path d="M75.8475 22.8288V5.12747H80.0718C81.2622 5.12747 82.2638 5.27316 83.0767 5.56454C83.9042 5.84135 84.5284 6.32213 84.9494 7.00687C85.3849 7.69162 85.6026 8.62404 85.6026 9.80413C85.6026 10.518 85.5373 11.159 85.4066 11.7272C85.276 12.2954 85.051 12.7835 84.7316 13.1914C84.4268 13.5848 83.9985 13.8907 83.4469 14.1093L85.9075 22.8288H82.6848L80.5508 14.7212H79.0702V22.8288H75.8475ZM79.0702 12.6888H80.0718C80.696 12.6888 81.1896 12.6014 81.5525 12.4265C81.9299 12.2372 82.1985 11.9458 82.3582 11.5524C82.5178 11.1445 82.5977 10.6273 82.5977 10.0008C82.5977 9.1121 82.4307 8.44921 82.0969 8.01214C81.7775 7.5605 81.1605 7.33468 80.246 7.33468H79.0702V12.6888Z" fill="var(--fill-0, #232323)"/>
<path d="M92.2138 23.0692C91.1541 23.0692 90.2686 22.8652 89.5573 22.4573C88.846 22.0348 88.3089 21.4229 87.946 20.6216C87.583 19.8203 87.3798 18.8369 87.3363 17.6714L90.1017 17.1251C90.1307 17.8098 90.2105 18.4144 90.3412 18.9389C90.4864 19.4634 90.6968 19.8713 90.9727 20.1627C91.263 20.4395 91.6404 20.5779 92.105 20.5779C92.6276 20.5779 92.9977 20.4249 93.2155 20.119C93.4332 19.7985 93.5421 19.3978 93.5421 18.917C93.5421 18.1449 93.3679 17.5111 93.0195 17.0158C92.6711 16.5204 92.2066 16.0251 91.6259 15.5297L89.4049 13.5629C88.7807 13.0239 88.2798 12.4265 87.9024 11.7709C87.5395 11.1008 87.358 10.2776 87.358 9.3015C87.358 7.90287 87.7645 6.82476 88.5774 6.06717C89.3904 5.30958 90.5009 4.93079 91.909 4.93079C92.7364 4.93079 93.426 5.06191 93.9776 5.32415C94.5292 5.57183 94.9647 5.92148 95.2841 6.37312C95.618 6.82476 95.8647 7.34196 96.0244 7.92472C96.1841 8.49292 96.2857 9.09753 96.3293 9.73857L93.5856 10.2193C93.5566 9.66572 93.4913 9.17037 93.3897 8.7333C93.3026 8.29623 93.1356 7.95386 92.8888 7.70619C92.6566 7.45851 92.3082 7.33468 91.8437 7.33468C91.3646 7.33468 90.9944 7.49494 90.7331 7.81546C90.4864 8.12141 90.363 8.50748 90.363 8.97369C90.363 9.57102 90.4864 10.0664 90.7331 10.4597C90.9799 10.8385 91.3356 11.2319 91.8001 11.6398L93.9994 13.5848C94.7252 14.1967 95.3422 14.9179 95.8502 15.7483C96.3728 16.5641 96.6341 17.5548 96.6341 18.7204C96.6341 19.5654 96.4454 20.3157 96.068 20.9713C95.7051 21.6269 95.1897 22.1441 94.522 22.5229C93.8687 22.8871 93.0993 23.0692 92.2138 23.0692Z" fill="var(--fill-0, #232323)"/>
</g>
</g>
</svg>
