<svg width="342" height="76" viewBox="0 0 342 76" fill="none" xmlns="http://www.w3.org/2000/svg">
<path d="M0 38L38.9714 0L77.9429 38L38.9714 76L0 38Z" fill="#394656"/>
<path d="M38.858 37.8512H8.46801L30.0238 28.9062L38.858 8.60665V37.8512Z" fill="white"/>
<path d="M38.858 37.8512H8.46801L30.0238 28.9062L38.858 37.8512Z" fill="url(#paint0_linear_2417_14625)"/>
<path d="M39.0852 38.1496H69.4752L47.9194 47.0946L39.0852 67.3941V38.1496Z" fill="white"/>
<path d="M39.0852 38.1496H69.4752L47.9194 47.0946L39.0852 38.1496Z" fill="url(#paint1_linear_2417_14625)"/>
<path d="M109.459 60.5095C108.14 60.5095 106.921 60.1977 105.802 59.5741C104.723 58.9506 103.863 58.1126 103.224 57.0603C102.584 55.969 102.265 54.7803 102.265 53.4941V25.4326C102.265 24.1465 102.584 22.9772 103.224 21.9249C103.863 20.8336 104.723 19.9762 105.802 19.3526C106.921 18.729 108.14 18.4172 109.459 18.4172H145.313V23.1526H109.459C108.82 23.1526 108.26 23.3865 107.781 23.8541C107.341 24.2829 107.121 24.809 107.121 25.4326V53.4941C107.121 54.1177 107.341 54.6634 107.781 55.1311C108.26 55.5598 108.82 55.7741 109.459 55.7741H145.313V60.5095H109.459Z" fill="#394656"/>
<path d="M159.778 60.5095C158.459 60.5095 157.24 60.1977 156.121 59.5741C155.042 58.9116 154.163 58.0541 153.483 57.0018C152.843 55.9106 152.524 54.7218 152.524 53.4357V41.1588H182.981V33.6757C182.981 33.0521 182.742 32.5259 182.262 32.0972C181.822 31.6295 181.283 31.3957 180.643 31.3957H152.524V26.6018H180.643C182.002 26.6018 183.221 26.9331 184.3 27.5957C185.42 28.2193 186.299 29.0767 186.938 30.168C187.618 31.2203 187.958 32.3895 187.958 33.6757V60.5095H159.778ZM159.778 55.7157H182.981V45.9526H157.44V53.4357C157.44 54.0593 157.66 54.6049 158.1 55.0726C158.579 55.5013 159.139 55.7157 159.778 55.7157Z" fill="#394656"/>
<path d="M201.196 60.5095C199.877 60.5095 198.658 60.1977 197.539 59.5741C196.46 58.9116 195.58 58.0541 194.901 57.0018C194.261 55.9106 193.942 54.7218 193.942 53.4357V52.968H198.858V53.4357C198.858 54.0593 199.078 54.6049 199.518 55.0726C199.997 55.5013 200.557 55.7157 201.196 55.7157H222.061C222.701 55.7157 223.24 55.5013 223.68 55.0726C224.159 54.6049 224.399 54.0593 224.399 53.4357V48.2326C224.399 47.609 224.159 47.0829 223.68 46.6541C223.24 46.1865 222.701 45.9526 222.061 45.9526H201.196C199.877 45.9526 198.658 45.6408 197.539 45.0172C196.46 44.3547 195.58 43.4972 194.901 42.4449C194.261 41.3536 193.942 40.1649 193.942 38.8788V33.6757C193.942 32.3895 194.261 31.2203 194.901 30.168C195.58 29.0767 196.46 28.2193 197.539 27.5957C198.658 26.9331 199.877 26.6018 201.196 26.6018H222.061C223.42 26.6018 224.639 26.9331 225.718 27.5957C226.837 28.2193 227.717 29.0767 228.356 30.168C229.036 31.2203 229.376 32.3895 229.376 33.6757V34.1434H224.399V33.6757C224.399 33.0521 224.159 32.5259 223.68 32.0972C223.24 31.6295 222.701 31.3957 222.061 31.3957H201.196C200.557 31.3957 199.997 31.6295 199.518 32.0972C199.078 32.5259 198.858 33.0521 198.858 33.6757V38.8788C198.858 39.5024 199.078 40.048 199.518 40.5157C199.997 40.9444 200.557 41.1588 201.196 41.1588H222.061C223.42 41.1588 224.639 41.49 225.718 42.1526C226.837 42.7762 227.717 43.6336 228.356 44.7249C229.036 45.7772 229.376 46.9465 229.376 48.2326V53.4357C229.376 54.7218 229.036 55.9106 228.356 57.0018C227.717 58.0541 226.837 58.9116 225.718 59.5741C224.639 60.1977 223.42 60.5095 222.061 60.5095H201.196Z" fill="#394656"/>
<path d="M243.798 60.5095C242.439 60.5095 241.2 60.1977 240.081 59.5741C239.001 58.9116 238.142 58.0541 237.503 57.0018C236.863 55.9106 236.543 54.7218 236.543 53.4357V15.4941H241.46V26.6018H256.509V31.3957H241.46V53.4357C241.46 54.0593 241.679 54.6049 242.119 55.0726C242.599 55.5013 243.158 55.7157 243.798 55.7157H256.509V60.5095H243.798Z" fill="#394656"/>
<path d="M269.528 60.5095C268.209 60.5095 266.99 60.1977 265.871 59.5741C264.792 58.9116 263.913 58.0541 263.233 57.0018C262.593 55.9106 262.274 54.7218 262.274 53.4357V41.1588H292.731V33.6757C292.731 33.0521 292.492 32.5259 292.012 32.0972C291.572 31.6295 291.033 31.3957 290.393 31.3957H262.274V26.6018H290.393C291.752 26.6018 292.971 26.9331 294.05 27.5957C295.17 28.2193 296.049 29.0767 296.688 30.168C297.368 31.2203 297.708 32.3895 297.708 33.6757V60.5095H269.528ZM269.528 55.7157H292.731V45.9526H267.19V53.4357C267.19 54.0593 267.41 54.6049 267.85 55.0726C268.329 55.5013 268.889 55.7157 269.528 55.7157Z" fill="#394656"/>
<path d="M304.81 60.5095V33.6757C304.81 32.3895 305.129 31.2203 305.769 30.168C306.449 29.0767 307.328 28.2193 308.407 27.5957C309.526 26.9331 310.745 26.6018 312.064 26.6018H331.61V31.3957H312.064C311.425 31.3957 310.865 31.6295 310.386 32.0972C309.946 32.5259 309.726 33.0521 309.726 33.6757V60.5095H304.81Z" fill="#394656"/>
<path d="M336.689 60.5095V26.6018H341.606V60.5095H336.689ZM336.689 20.288V15.4941H341.606V20.288H336.689Z" fill="#394656"/>
<defs>
<linearGradient id="paint0_linear_2417_14625" x1="289.804" y1="38.8113" x2="256.754" y2="85.9702" gradientUnits="userSpaceOnUse">
<stop stop-color="#F8F8F8"/>
<stop offset="1" stop-color="#A1AAB5"/>
</linearGradient>
<linearGradient id="paint1_linear_2417_14625" x1="289.804" y1="38.8113" x2="256.754" y2="85.9702" gradientUnits="userSpaceOnUse">
<stop stop-color="#F8F8F8"/>
<stop offset="1" stop-color="#A1AAB5"/>
</linearGradient>
</defs>
</svg>
