<svg width="84" height="16" viewBox="0 0 84 16" fill="none" xmlns="http://www.w3.org/2000/svg">
<path d="M26.2299 14.6891C26.1648 14.6891 26.1061 14.6703 26.0541 14.6329C26.0019 14.5954 25.9759 14.5142 25.9759 14.3893L25.7805 2.95982C25.7805 2.87238 25.7479 2.82866 25.6829 2.82866C25.6307 2.82866 25.5917 2.86613 25.5656 2.94108L22.6937 13.2651C22.6025 13.6148 22.596 13.8834 22.6742 14.0708C22.7653 14.2457 22.9672 14.3581 23.2798 14.408L23.5143 14.4455C23.6706 14.458 23.7487 14.5267 23.7487 14.6516C23.7487 14.8015 23.625 14.8764 23.3775 14.8764H20.6228C20.4275 14.8764 20.3298 14.814 20.3298 14.6891C20.3298 14.5517 20.4339 14.4705 20.6424 14.4455L20.9159 14.408C21.2675 14.3581 21.528 14.2457 21.6973 14.0708C21.8666 13.8834 21.9969 13.6148 22.0881 13.2651L25.0381 2.62255C25.1032 2.36024 25.1032 2.18536 25.0381 2.09792C24.973 2.01049 24.7972 1.94178 24.5107 1.89182L24.1785 1.83561C23.9701 1.79813 23.8659 1.71694 23.8659 1.59203C23.8659 1.45462 23.9832 1.38592 24.2176 1.38592H26.562C26.9397 1.38592 27.1286 1.57329 27.1286 1.94803L27.2458 11.2602C27.2458 11.3477 27.2718 11.3977 27.324 11.4101C27.389 11.4101 27.4412 11.3727 27.4803 11.2977L32.2082 1.85434C32.3645 1.54207 32.6119 1.38592 32.9506 1.38592H35.3145C35.4708 1.38592 35.549 1.44838 35.549 1.57329C35.549 1.6982 35.4382 1.7794 35.2168 1.81687L34.748 1.89182C34.4614 1.94178 34.266 2.01049 34.1619 2.09792C34.0576 2.18536 33.973 2.36024 33.9079 2.62255L31.6416 13.6398C31.5895 13.9021 31.5895 14.077 31.6416 14.1644C31.7067 14.2519 31.8695 14.3206 32.13 14.3706L32.4621 14.4268C32.5924 14.4392 32.6771 14.4705 32.7161 14.5204C32.7552 14.5579 32.7747 14.6017 32.7747 14.6516C32.7747 14.8015 32.6575 14.8764 32.4231 14.8764H28.9455C28.7632 14.8764 28.672 14.814 28.672 14.6891C28.672 14.5642 28.7762 14.483 28.9846 14.4455L29.4535 14.3706C29.74 14.3206 29.9354 14.2519 30.0396 14.1644C30.1568 14.077 30.2414 13.9021 30.2936 13.6398L32.5012 3.01603C32.5272 2.92859 32.5077 2.87862 32.4426 2.86613C32.3775 2.84115 32.3254 2.86613 32.2863 2.94108L26.5816 14.3893C26.5294 14.5142 26.4708 14.5954 26.4057 14.6329C26.3536 14.6703 26.295 14.6891 26.2299 14.6891ZM35.3153 15.0451C34.8464 15.0451 34.4817 14.8514 34.2212 14.4642C33.9607 14.077 33.8305 13.5087 33.8305 12.7592C33.8305 12.0472 33.9347 11.3352 34.1431 10.6232C34.3514 9.89871 34.638 9.21166 35.0027 8.56213C35.3673 7.91261 35.7776 7.33797 36.2335 6.83834C36.7024 6.33871 37.1908 5.94524 37.6988 5.65792C38.2197 5.35813 38.7342 5.20824 39.2422 5.20824C39.4896 5.20824 39.7241 5.25818 39.9455 5.35813C40.1669 5.44555 40.3492 5.58924 40.4925 5.78908C40.5707 5.9015 40.6488 5.95771 40.727 5.95771C40.8051 5.95771 40.8833 5.9015 40.9614 5.78908C41.1047 5.58924 41.2219 5.46429 41.3131 5.41434C41.4042 5.35187 41.4889 5.32066 41.5671 5.32066C41.7364 5.32066 41.8015 5.40808 41.7624 5.58298L40.0236 12.7592C39.8283 13.5711 39.9585 13.9771 40.4144 13.9771C40.714 13.9771 40.9809 13.7834 41.2154 13.3962C41.4628 13.009 41.7103 12.4094 41.9578 11.5975C41.9969 11.4601 42.0815 11.3914 42.2118 11.3914C42.3029 11.3914 42.3615 11.4289 42.3876 11.5038C42.4137 11.5788 42.4137 11.6662 42.3876 11.7661C42.1401 12.9403 41.808 13.7834 41.3912 14.2956C40.9744 14.7952 40.473 15.0451 39.8869 15.0451C39.3789 15.0451 39.0143 14.839 38.7928 14.4268C38.5844 14.0146 38.5649 13.4524 38.7342 12.7404L38.9882 11.7099C39.0143 11.6225 38.9947 11.5725 38.9296 11.56C38.8775 11.5476 38.8319 11.5788 38.7928 11.6537C38.0765 12.9153 37.4382 13.796 36.8782 14.2956C36.3312 14.7952 35.8102 15.0451 35.3153 15.0451ZM35.8037 14.0895C36.1163 14.0895 36.4614 13.9084 36.8391 13.5461C37.2169 13.1839 37.5881 12.7154 37.9527 12.1409C38.3305 11.5663 38.6756 10.948 38.9882 10.2859C39.3008 9.62387 39.5482 8.98681 39.7306 8.37476C39.926 7.76271 40.0236 7.24429 40.0236 6.81961C40.0236 6.05766 39.7436 5.67666 39.1836 5.67666C38.8449 5.67666 38.4868 5.82655 38.109 6.12634C37.7313 6.41366 37.3666 6.80713 37.015 7.30676C36.6763 7.80639 36.3637 8.37476 36.0772 9.01182C35.8037 9.6364 35.5822 10.2922 35.4129 10.9792C35.2436 11.6537 35.159 12.3158 35.159 12.9653C35.159 13.4025 35.211 13.7023 35.3153 13.8647C35.4325 14.0146 35.5953 14.0895 35.8037 14.0895ZM44.002 15.0451C43.5201 15.0451 43.1489 14.8514 42.8884 14.4642C42.6279 14.077 42.4977 13.5087 42.4977 12.7592C42.4977 12.0472 42.6018 11.3352 42.8103 10.6232C43.0186 9.89871 43.3052 9.21166 43.6699 8.56213C44.0346 7.91261 44.4448 7.33797 44.9007 6.83834C45.3696 6.33871 45.858 5.94524 46.366 5.65792C46.8869 5.35813 47.4014 5.20824 47.9094 5.20824C48.261 5.20824 48.5671 5.29566 48.8276 5.47055C49.0099 5.58297 49.1207 5.5455 49.1597 5.35813L49.7849 2.88487C49.85 2.66003 49.85 2.50389 49.7849 2.41645C49.7328 2.32901 49.6156 2.27904 49.4333 2.26655L48.8471 2.21034C48.6518 2.19785 48.5671 2.11666 48.5932 1.96676C48.6192 1.85434 48.7104 1.78564 48.8667 1.76066C49.3356 1.68571 49.7523 1.59828 50.117 1.49834C50.4817 1.38592 50.7748 1.24228 50.9962 1.0674C51.1004 0.992449 51.198 0.954975 51.2893 0.954975C51.4455 0.954975 51.5042 1.04866 51.4651 1.23603L48.6909 12.7592C48.4955 13.5711 48.6257 13.9771 49.0816 13.9771C49.3811 13.9771 49.6482 13.7834 49.8826 13.3962C50.1301 13.009 50.3775 12.4094 50.625 11.5975C50.6641 11.4601 50.7487 11.3914 50.879 11.3914C50.9701 11.3914 51.0287 11.4289 51.0548 11.5038C51.0808 11.5788 51.0808 11.6662 51.0548 11.7661C50.8073 12.9403 50.4622 13.7834 50.0194 14.2956C49.5896 14.7952 49.0816 15.0451 48.4955 15.0451C47.9875 15.0451 47.6228 14.839 47.4014 14.4268C47.193 14.0146 47.1735 13.4524 47.3428 12.7404L47.5577 11.8786C47.5837 11.7911 47.5642 11.7411 47.4991 11.7287C47.447 11.7162 47.4014 11.7474 47.3624 11.8223C46.7372 12.9965 46.1445 13.8272 45.5845 14.3143C45.0244 14.8015 44.4969 15.0451 44.002 15.0451ZM44.4709 14.0895C44.7835 14.0895 45.1286 13.9084 45.5063 13.5461C45.884 13.1839 46.2552 12.7154 46.6199 12.1409C46.9976 11.5663 47.3428 10.948 47.6554 10.2859C47.968 9.62387 48.2154 8.98681 48.3978 8.37476C48.5932 7.76271 48.6909 7.24429 48.6909 6.81961C48.6909 6.05766 48.4108 5.67666 47.8508 5.67666C47.5121 5.67666 47.1539 5.82655 46.7762 6.12634C46.3985 6.41366 46.0338 6.80713 45.6822 7.30676C45.3435 7.80639 45.0309 8.37476 44.7444 9.01182C44.4709 9.6364 44.2495 10.2922 44.0802 10.9792C43.9108 11.6537 43.8262 12.3158 43.8262 12.9653C43.8262 13.4025 43.8848 13.7023 44.002 13.8647C44.1322 14.0146 44.2885 14.0895 44.4709 14.0895ZM53.4311 15.0451C52.7408 15.0451 52.1873 14.789 51.7705 14.2769C51.3537 13.7522 51.1453 13.0152 51.1453 12.0659C51.1453 11.2415 51.2951 10.4233 51.5946 9.6114C51.9072 8.79945 52.311 8.0625 52.8059 7.40045C53.3009 6.73839 53.8414 6.20756 54.4275 5.80782C55.0266 5.40808 55.6062 5.20824 56.1663 5.20824C56.7784 5.20824 57.2147 5.35187 57.4752 5.63919C57.7487 5.91397 57.8855 6.28871 57.8855 6.7634C57.8855 7.3255 57.6771 7.88761 57.2603 8.44971C56.8566 8.99935 56.2835 9.49271 55.5411 9.92992C54.8117 10.3671 53.9521 10.6919 52.9622 10.9042C52.6757 10.9667 52.5259 11.1228 52.5129 11.3727C52.4999 11.4601 52.4933 11.5538 52.4933 11.6537C52.4933 11.7411 52.4933 11.8286 52.4933 11.916C52.4933 12.628 52.6171 13.1651 52.8645 13.5274C53.125 13.8897 53.4767 14.0708 53.9195 14.0708C54.4145 14.0708 54.8898 13.8522 55.3457 13.415C55.8146 12.9778 56.2053 12.3594 56.5179 11.56C56.557 11.4476 56.6351 11.3914 56.7524 11.3914C56.8305 11.3914 56.8761 11.4226 56.8891 11.4851C56.9152 11.5476 56.9152 11.6225 56.8891 11.7099C56.4723 12.8091 55.9644 13.6398 55.3653 14.2019C54.7791 14.764 54.1344 15.0451 53.4311 15.0451ZM52.7082 10.1922C52.6822 10.2797 52.6952 10.3546 52.7473 10.4171C52.8125 10.467 52.8906 10.4796 52.9818 10.4546C53.7893 10.2422 54.4666 9.92366 55.0136 9.49897C55.5606 9.06176 55.9709 8.5746 56.2444 8.0375C56.5309 7.5004 56.6742 6.97577 56.6742 6.46361C56.6742 5.93897 56.4593 5.67666 56.0295 5.67666C55.6518 5.67666 55.2415 5.88903 54.7987 6.31371C54.3559 6.73839 53.9456 7.29429 53.5679 7.98129C53.1901 8.66829 52.9036 9.40529 52.7082 10.1922ZM59.4222 14.8764C59.2268 14.8764 59.1291 14.8078 59.1291 14.6703C59.1291 14.5329 59.2138 14.458 59.3831 14.4455L60.2621 14.3143C60.5228 14.2769 60.6986 14.2144 60.7896 14.127C60.8812 14.027 60.9263 13.8459 60.9263 13.5836V2.3415C60.9263 2.16662 60.8873 2.04171 60.8091 1.96676C60.731 1.89182 60.5686 1.85434 60.3207 1.85434C59.839 1.85434 59.3636 2.0542 58.8947 2.45392C58.4258 2.85364 58.1198 3.49694 57.9765 4.38382L57.8788 5.00213C57.8527 5.1645 57.7616 5.24571 57.6053 5.24571C57.4099 5.24571 57.3252 5.13956 57.3513 4.92719L57.5271 1.53582C57.5532 1.24852 57.6704 1.10487 57.8788 1.10487C57.9699 1.10487 58.0546 1.12985 58.1328 1.17982C58.2109 1.21729 58.3411 1.26101 58.5235 1.31098C58.7189 1.36094 59.0249 1.38592 59.4417 1.38592H63.7983C64.2153 1.38592 64.515 1.36094 64.697 1.31098C64.8923 1.26101 65.0291 1.21729 65.1072 1.17982C65.1988 1.12985 65.2831 1.10487 65.3612 1.10487C65.57 1.10487 65.6872 1.24852 65.7129 1.53582L65.8887 4.92719C65.915 5.13956 65.8301 5.24571 65.6347 5.24571C65.4784 5.24571 65.3875 5.1645 65.3612 5.00213L65.2635 4.38382C65.1335 3.49694 64.8337 2.85364 64.3648 2.45392C63.896 2.0542 63.4142 1.85434 62.9191 1.85434C62.6718 1.85434 62.5088 1.89182 62.4307 1.96676C62.3525 2.04171 62.3135 2.16662 62.3135 2.3415V13.5836C62.3135 13.8459 62.3593 14.027 62.4502 14.127C62.5546 14.2144 62.7305 14.2769 62.9777 14.3143L63.8569 14.4455C64.0266 14.458 64.1109 14.5329 64.1109 14.6703C64.1109 14.8078 64.0132 14.8764 63.8178 14.8764H59.4222ZM66.0633 14.8764C65.907 14.8764 65.8289 14.8078 65.8289 14.6703C65.8289 14.5455 65.9009 14.4705 66.0438 14.4455L66.3173 14.408C66.5908 14.3706 66.7666 14.2956 66.8448 14.1832C66.9364 14.0708 66.9816 13.8834 66.9816 13.6211V2.88487C66.9816 2.66003 66.9425 2.51013 66.8643 2.43519C66.7996 2.34775 66.6757 2.29154 66.4931 2.26655L66.0829 2.21034C65.94 2.18536 65.868 2.11041 65.868 1.9855C65.868 1.86059 65.94 1.78564 66.0829 1.76066C66.448 1.68571 66.7538 1.59828 67.0011 1.49834C67.249 1.39841 67.4571 1.29849 67.6263 1.19855C67.8351 1.07364 67.9914 1.01119 68.0952 1.01119C68.2386 1.01119 68.3101 1.11112 68.3101 1.31098V6.27624C68.3101 6.38866 68.3491 6.45734 68.4273 6.48234C68.5054 6.49481 68.6031 6.45113 68.7203 6.35119C69.2155 5.91397 69.652 5.61418 70.0293 5.45182C70.4072 5.28945 70.8047 5.20824 71.221 5.20824C71.8334 5.20824 72.3151 5.40808 72.6668 5.80782C73.0184 6.19503 73.1943 6.76966 73.1943 7.53161V13.6211C73.1943 13.8834 73.2333 14.0708 73.3115 14.1832C73.4031 14.2831 73.585 14.3518 73.8585 14.3893L74.2883 14.4455C74.4318 14.4705 74.5032 14.5455 74.5032 14.6703C74.5032 14.8078 74.4251 14.8764 74.2688 14.8764H70.9866C70.8047 14.8764 70.7131 14.8078 70.7131 14.6703C70.7131 14.5455 70.7851 14.4705 70.928 14.4455L71.2015 14.408C71.475 14.3706 71.6509 14.2956 71.729 14.1832C71.8206 14.0708 71.8658 13.8834 71.8658 13.6211V7.73771C71.8658 7.12566 71.7485 6.69471 71.5141 6.44487C71.2797 6.19503 70.9475 6.07013 70.5177 6.07013C70.1013 6.07013 69.7234 6.18882 69.3846 6.42613C69.0592 6.65097 68.7985 6.95703 68.6031 7.34424C68.4077 7.71898 68.3101 8.13745 68.3101 8.59961V13.6211C68.3101 13.8834 68.3491 14.0708 68.4273 14.1832C68.5189 14.2956 68.7008 14.3643 68.9743 14.3893L69.5018 14.4455C69.6453 14.4705 69.7167 14.5455 69.7167 14.6703C69.7167 14.8078 69.6386 14.8764 69.4823 14.8764H66.0633ZM76.3543 3.54066C76.0808 3.54066 75.8464 3.44697 75.651 3.25961C75.4685 3.07224 75.3775 2.83491 75.3775 2.54761C75.3775 2.26031 75.4685 2.02922 75.651 1.85434C75.8464 1.66698 76.0808 1.57329 76.3543 1.57329C76.6279 1.57329 76.8556 1.66698 77.0381 1.85434C77.2201 2.02922 77.3117 2.26031 77.3117 2.54761C77.3117 2.83491 77.2201 3.07224 77.0381 3.25961C76.8556 3.44697 76.6279 3.54066 76.3543 3.54066ZM74.7133 14.8764C74.5179 14.8764 74.4202 14.8078 74.4202 14.6703C74.4202 14.5579 74.5045 14.483 74.6742 14.4455L74.9086 14.408C75.234 14.3581 75.4422 14.2831 75.5338 14.1832C75.6248 14.0708 75.6706 13.8834 75.6706 13.6211V7.3255C75.6706 7.10066 75.6315 6.95077 75.5533 6.87582C75.488 6.7884 75.3641 6.73219 75.1821 6.70719L74.7719 6.65097C74.6021 6.6385 74.5179 6.56976 74.5179 6.44487C74.5179 6.34492 74.6217 6.27624 74.8305 6.23876C75.234 6.17629 75.5594 6.0764 75.8073 5.93897C76.0546 5.80155 76.2957 5.63292 76.5302 5.43308C76.6474 5.32066 76.7451 5.26445 76.8232 5.26445C76.9405 5.26445 76.9991 5.3394 76.9991 5.48929V13.6211C76.9991 13.8834 77.0381 14.0708 77.1163 14.1832C77.1944 14.2956 77.344 14.3643 77.5656 14.3893L78.0541 14.4455C78.1969 14.4705 78.269 14.5392 78.269 14.6516C78.269 14.8015 78.1713 14.8764 77.9759 14.8764H74.7133ZM80.4504 15.0451C80.1506 15.0451 79.8313 15.0076 79.4931 14.9327C79.1542 14.8702 78.8807 14.789 78.6725 14.6891C78.5553 14.6266 78.4967 14.5204 78.4967 14.3706L78.4381 12.272C78.4381 12.0597 78.5223 11.9535 78.6921 11.9535C78.8349 11.9535 78.9326 12.0535 78.9851 12.2533C79.2061 13.1402 79.4735 13.746 79.7861 14.0708C80.1115 14.3956 80.5023 14.5579 80.9583 14.5579C81.3356 14.5579 81.6482 14.4205 81.8961 14.1457C82.1434 13.8584 82.2673 13.4649 82.2673 12.9653C82.2673 12.4657 82.1238 12.0222 81.8375 11.635C81.5505 11.2478 81.0688 10.823 80.3918 10.3609C79.7141 9.92366 79.2196 9.4865 78.907 9.04929C78.5944 8.59961 78.4381 8.11245 78.4381 7.58782C78.4381 6.87582 78.6982 6.30124 79.2196 5.86403C79.7403 5.42682 80.4308 5.20824 81.2905 5.20824C81.5505 5.20824 81.8045 5.23945 82.0524 5.30192C82.2997 5.35187 82.5213 5.43935 82.7166 5.56424C82.8339 5.63919 82.8925 5.73913 82.8925 5.86403L82.9315 7.92508C82.9315 8.11245 82.8534 8.20613 82.6971 8.20613C82.6055 8.20613 82.5408 8.18113 82.5017 8.13118C82.4627 8.06871 82.4297 7.99376 82.4041 7.90634C82.1434 7.09439 81.8827 6.53229 81.6226 6.22003C81.3619 5.89524 81.0426 5.73287 80.6653 5.73287C80.3264 5.73287 80.0462 5.84529 79.8252 6.07013C79.6036 6.29498 79.4931 6.57603 79.4931 6.91329C79.4931 7.3505 79.6298 7.73145 79.9033 8.05624C80.1769 8.38103 80.6714 8.78071 81.3881 9.25539C82.039 9.70508 82.5274 10.1922 82.8534 10.7169C83.1916 11.229 83.3614 11.7911 83.3614 12.4032C83.3614 13.2026 83.094 13.8459 82.5604 14.3331C82.0261 14.8078 81.3228 15.0451 80.4504 15.0451Z" fill="#4A433C"/>
<path d="M8.05593 10.4421C7.0233 10.4421 5.64439 10.3894 5.64439 12.1709L4.61848 12.0598L4.13311 10.7017C6.03513 10.7017 6.03513 9.27485 6.03513 8.3528V5.8475C6.03513 5.68887 6.17207 5.56034 6.34093 5.56034H11.1828V10.155C11.1828 10.3136 11.0459 10.4421 10.877 10.4421H8.05593Z" fill="#4A433C"/>
<path d="M5.64442 10.6994H0V16H5.64442V10.6994Z" fill="#4A433C"/>
<path d="M9.19845 5.56509C10.2311 5.56509 11.619 5.61092 11.619 3.82941L12.645 3.94048L13.1303 5.29856C11.2283 5.29856 11.2283 6.72548 11.2283 7.64748V10.1528C11.2283 10.3114 11.0914 10.44 10.9225 10.44H6.08062V5.85225C6.08062 5.69362 6.21755 5.56509 6.38641 5.56509H9.19845Z" fill="#4A433C"/>
<path d="M11.6187 5.30064H17.2632V1.47091e-06H11.6187V5.30064Z" fill="#4A433C"/>
<path d="M17.2632 10.6994H11.6187V16H17.2632V10.6994Z" fill="#4A433C"/>
<path d="M5.64442 0H0V5.30064H5.64442V0Z" fill="#4A433C"/>
</svg>
