<svg width="880" height="210" viewBox="0 0 880 210" fill="none" xmlns="http://www.w3.org/2000/svg">
<g clip-path="url(#clip0_2793_1593)">
<mask id="mask0_2793_1593" style="mask-type:luminance" maskUnits="userSpaceOnUse" x="0" y="0" width="880" height="210">
<path d="M880 0H0V210H880V0Z" fill="white"/>
</mask>
<g mask="url(#mask0_2793_1593)">
<path d="M9.68342 196.145C8.04604 197.818 5.2168 196.651 5.2168 194.303V16.18C5.2168 13.847 8.01488 12.6733 9.66132 14.3157L192.076 196.275C193.722 197.918 196.52 196.744 196.52 194.411V11.6557C196.52 9.30746 193.691 8.14064 192.054 9.81361L100.869 102.98L9.68342 196.145Z" stroke="url(#paint0_linear_2793_1593)" stroke-width="8" stroke-miterlimit="10"/>
<path d="M5.90625 16.1486L96.3742 199.652C97.3428 201.616 100.129 201.618 101.101 199.656L148.628 103.663L195.884 10.8447" stroke="url(#paint1_linear_2793_1593)" stroke-width="8" stroke-miterlimit="10"/>
<path d="M270.683 80.472V152.249H258.365V54.2734H270.54L306.849 127.773L343.443 54.2734H355.475V152.249H343.157V80.472L306.849 153.254L270.683 80.472ZM389.993 84.4919V152.249H378.821V84.4919H389.993ZM384.55 58.2209C386.651 58.2209 388.394 59.0105 389.778 60.5897C391.019 61.9773 391.64 63.6284 391.64 65.5426C391.64 67.6 390.828 69.3703 389.205 70.854C387.916 72.0022 386.341 72.5765 384.479 72.5765C382.282 72.5765 380.516 71.8111 379.179 70.2796C377.938 68.8921 377.317 67.2651 377.317 65.3987C377.317 63.2457 378.129 61.4271 379.752 59.944C380.993 58.7953 382.593 58.2209 384.55 58.2209ZM412.48 84.4919H423.652V94.038C426.182 90.6407 428.689 88.1286 431.172 86.5016C434.895 84.1087 439.073 82.9127 443.704 82.9127C450.054 82.9127 455.234 84.8027 459.244 88.5827C461.918 91.0234 463.613 93.9183 464.329 97.2678C464.854 99.8041 465.117 102.915 465.117 106.599V152.249H453.873V109.039C453.873 103.489 453.062 99.613 451.438 97.4116C449.242 94.3971 445.709 92.8898 440.84 92.8898C435.826 92.8898 431.553 94.8034 428.02 98.6317C425.108 101.79 423.652 105.881 423.652 110.906V152.249H412.48V84.4919ZM537.665 94.7557V54.2734H548.906V152.249H537.665V140.622C534.847 144.497 532.028 147.369 529.21 149.235C524.533 152.297 519.281 153.829 513.456 153.829C503.955 153.829 496.174 150.407 490.11 143.564C484.477 137.2 481.659 128.922 481.659 118.729C481.659 112.03 483.068 105.81 485.885 100.067C488.415 94.8517 492.163 90.6643 497.128 87.5065C502.094 84.3958 507.513 82.8408 513.385 82.8408C518.159 82.8408 522.719 83.8698 527.063 85.9273C530.74 87.602 534.27 90.5446 537.665 94.7557ZM515.82 92.8179C508.229 92.8179 502.356 95.9044 498.202 102.077C495.052 106.814 493.476 112.413 493.476 118.873C493.476 126.721 495.72 133.013 500.208 137.751C504.171 141.962 509.159 144.067 515.175 144.067C521.812 144.067 527.278 141.578 531.573 136.602C533.726 134.162 535.323 131.051 536.371 127.271C537.282 124.16 537.733 121.218 537.733 118.442C537.733 110.595 535.611 104.326 531.358 99.6366C527.257 95.0906 522.074 92.8179 515.82 92.8179ZM613.643 102.938H602.544C602.544 100.594 602.188 98.8234 601.47 97.6269C599.275 93.8947 595.336 92.0283 589.653 92.0283C585.787 92.0283 582.754 92.9376 580.559 94.7557C578.459 96.4787 577.406 98.7992 577.406 101.718C577.406 104.111 578.077 106.001 579.412 107.389C580.895 108.968 582.922 110.188 585.499 111.049C587.411 111.671 589.752 112.365 592.518 113.131C600.59 115.332 606.1 117.916 609.06 120.883C612.643 124.472 614.434 128.898 614.434 134.162C614.434 140.622 611.737 145.766 606.341 149.593C602.376 152.417 597.08 153.829 590.444 153.829C580.371 153.829 573.184 150.718 568.884 144.497C566.836 141.483 565.594 137.655 565.165 133.013H576.191C576.479 136.028 577.385 138.42 578.915 140.191C581.586 143.205 585.431 144.713 590.444 144.713C594.262 144.713 597.269 143.827 599.464 142.057C601.852 140.095 603.047 137.679 603.047 134.807C603.047 131.745 601.664 129.185 598.893 127.127C597.128 125.836 593.377 124.424 587.652 122.893C580.486 121.026 575.238 118.586 571.896 115.571C568.171 112.126 566.307 107.747 566.307 102.436C566.307 95.8802 569.03 90.7604 574.473 87.0754C578.627 84.3003 583.828 82.9127 590.082 82.9127C598.819 82.9127 605.315 85.5923 609.563 90.9515C612.046 94.1099 613.408 98.1052 613.643 102.938ZM631.762 84.4919H642.867V93.8947C645.108 90.4969 647.424 87.9847 649.812 86.3578C653.343 84.0131 657.376 82.8408 661.912 82.8408C666.784 82.8408 670.938 84.1328 674.374 86.7169C676.762 88.4872 678.695 91.3106 680.178 95.1867C682.467 91.2145 685.023 88.3438 687.836 86.573C691.659 84.1328 696.243 82.9127 701.586 82.9127C709.322 82.9127 715.027 85.281 718.704 90.0186C720.71 92.6504 721.925 95.5216 722.355 98.6317C722.69 101.311 722.858 104.733 722.858 108.896V152.249H711.617V111.551C711.617 106.814 711.449 103.728 711.114 102.293C710.396 99.0864 708.867 96.7176 706.53 95.1867C704.142 93.6553 701.277 92.8898 697.935 92.8898C692.686 92.8898 688.747 94.7557 686.117 98.4884C683.923 101.599 682.823 105.953 682.823 111.551V152.249H671.582V111.695C671.582 105.762 670.843 101.407 669.361 98.6317C667.308 94.7557 663.657 92.8179 658.403 92.8179C653.537 92.8179 649.666 94.5882 646.8 98.1293C644.176 101.383 642.867 105.905 642.867 111.695V152.249H631.62L631.762 84.4919ZM755.941 84.4919V152.249H744.774V84.4919H755.941ZM750.499 58.2209C752.599 58.2209 754.344 59.0105 755.727 60.5897C756.968 61.9773 757.591 63.6284 757.591 65.5426C757.591 67.6 756.779 69.3703 755.156 70.854C753.867 72.0022 752.29 72.5765 750.431 72.5765C748.231 72.5765 746.466 71.8111 745.13 70.2796C743.888 68.8921 743.265 67.2651 743.265 65.3987C743.265 63.2457 744.077 61.4271 745.701 59.944C746.942 58.7953 748.545 58.2209 750.499 58.2209ZM790.319 94.3252V138.396C790.319 139.928 790.628 140.98 791.251 141.555C791.917 142.177 793.278 142.488 795.332 142.488H800.486V152.249H790.178C786.307 152.249 783.494 151.412 781.723 149.737C779.958 148.11 779.073 145.407 779.073 141.627V94.3252H769.691V84.42H779.073V63.1738H790.319V84.42H800.486V94.3252H790.319ZM827.771 54.2734V93.8947C833.596 86.573 840.353 82.9127 848.037 82.9127C852.144 82.9127 856.062 83.9412 859.787 85.9992C863.652 88.1522 866.256 91.1909 867.591 95.1148C868.592 97.986 869.095 101.862 869.095 106.742V152.249H857.848V107.245C857.848 102.747 856.775 99.2061 854.627 96.622C852.527 94.1335 849.399 92.8898 845.246 92.8898C840.044 92.8898 835.697 94.8995 832.213 98.9189C830.348 101.024 829.133 103.154 828.562 105.307C828.033 107.221 827.771 109.638 827.771 112.557V152.249H816.53V54.2734H827.771Z" fill="black"/>
</g>
</g>
<defs>
<linearGradient id="paint0_linear_2793_1593" x1="34.3282" y1="5.24994" x2="144.243" y2="226.726" gradientUnits="userSpaceOnUse">
<stop/>
<stop offset="0.504443"/>
<stop offset="1"/>
</linearGradient>
<linearGradient id="paint1_linear_2793_1593" x1="34.8159" y1="10.8447" x2="143.507" y2="230.434" gradientUnits="userSpaceOnUse">
<stop/>
<stop offset="0.504443"/>
<stop offset="1"/>
</linearGradient>
<clipPath id="clip0_2793_1593">
<rect width="880" height="210" fill="white"/>
</clipPath>
</defs>
</svg>
