<svg width="824" height="459" viewBox="0 0 824 459" fill="none" xmlns="http://www.w3.org/2000/svg">
<g clip-path="url(#clip0_2048_9622)">
<path d="M424.384 142.751L419.697 144.013L412.051 198.557L416.737 197.28C436.529 191.911 445.104 183.655 448.006 162.877C450.603 144.376 444.176 137.382 424.384 142.751ZM424.384 142.751L419.697 144.013L412.051 198.557L416.737 197.28C436.529 191.911 445.104 183.655 448.006 162.877C450.603 144.376 444.176 137.382 424.384 142.751ZM424.384 142.751L419.697 144.013L412.051 198.557L416.737 197.28C436.529 191.911 445.104 183.655 448.006 162.877C450.603 144.376 444.176 137.382 424.384 142.751ZM424.384 142.751L419.697 144.013L412.051 198.557L416.737 197.28C436.529 191.911 445.104 183.655 448.006 162.877C450.603 144.376 444.176 137.382 424.384 142.751ZM424.384 142.751L419.697 144.013L412.051 198.557L416.737 197.28C436.529 191.911 445.104 183.655 448.006 162.877C450.603 144.376 444.176 137.382 424.384 142.751ZM424.384 142.751L419.697 144.013L412.051 198.557L416.737 197.28C436.529 191.911 445.104 183.655 448.006 162.877C450.603 144.376 444.176 137.382 424.384 142.751ZM424.384 142.751L419.697 144.013L412.051 198.557L416.737 197.28C436.529 191.911 445.104 183.655 448.006 162.877C450.603 144.376 444.176 137.382 424.384 142.751ZM424.384 142.751L419.697 144.013L412.051 198.557L416.737 197.28C436.529 191.911 445.104 183.655 448.006 162.877C450.603 144.376 444.176 137.382 424.384 142.751ZM544.192 80.4588L552.274 30.5585L46.9974 168.521L0 459L438.459 340.321L430.391 390.222L777.003 290.479L824 0L544.192 80.4588ZM204.328 223.993L203.196 232.105L159.942 243.843L161.132 235.398C163.453 218.842 159.217 212.182 147.144 215.461C136.755 218.276 130.386 226.881 128.847 237.909C127.382 248.298 132.504 253.159 141.848 255.626L160.16 260.646C185.944 267.698 200.7 277.434 196.246 309.24C190.688 348.839 162.684 376.118 125.133 386.304C87.5816 396.49 64.9172 383.271 71.0549 339.451L72.1576 331.673L115.412 319.934L114.265 328.046C112.132 343.296 117.429 351.552 130.502 347.997C141.892 344.906 148.799 337.1 150.395 325.739C152.034 314.058 144.954 311.606 133.172 308.239L116.717 303.654C95.9393 297.734 78.542 288.404 83.4608 253.348C88.5538 217 116.311 186.978 152.528 177.155C191.08 166.693 210.204 182.117 204.328 223.993ZM265.559 348.519C213.585 362.609 202.021 337.027 208.478 290.929L226.92 159.467L277.544 145.74L258.566 281.091C255.649 301.869 255.983 313.332 271.073 309.24C286.149 305.149 289.849 292.598 292.765 271.819L311.744 136.468L362.369 122.727L343.942 254.189C337.47 300.273 317.534 334.415 265.559 348.519ZM478.042 243.089C475.938 269.584 474.153 280.061 477.519 288.2L428.911 301.39C427.315 294.324 428.331 282.498 430.449 258.194C432.176 238.997 428.563 230.291 413.139 234.47L406.769 236.211L396.38 310.213L347.772 323.403L376.443 118.911L437.138 102.442C484.411 89.6146 502.171 107.912 497.064 144.26C492.566 176.4 475.241 196.395 453.288 205.783C474.733 204.651 479.971 217.913 478.042 243.089ZM580.002 301.405L578.856 284.225C571.543 299.649 555.495 310.547 538.736 315.103C496.817 326.464 483.555 299.156 491.797 240.404L495.715 212.487C503.956 153.735 528.246 116.241 576.52 103.138C624.46 90.137 637.81 114.616 631.106 162.325L630.381 167.52L582.44 180.536L584.355 166.896C586.895 148.715 585.516 137.861 571.108 141.764C556.685 145.682 552.027 158.175 549.488 176.357L539.418 248.095C536.879 266.276 539.259 276.868 553.333 273.038C567.756 269.134 573.081 256.453 575.635 238.271L576.041 235.355L560.617 239.534L565.623 203.824L627.653 187.007L612.853 292.496L580.002 301.405ZM757.066 94.4468L698.388 110.364L692.512 152.226L736.099 140.4L730.644 179.36L687.056 191.186L680.73 236.298L739.393 220.381L733.894 259.659L626.942 288.68L655.613 84.1736L762.565 55.1678L757.066 94.4468ZM424.384 142.751L419.697 144.013L412.051 198.557L416.737 197.28C436.529 191.911 445.104 183.655 448.006 162.877C450.603 144.376 444.176 137.382 424.384 142.751ZM424.384 142.751L419.697 144.013L412.051 198.557L416.737 197.28C436.529 191.911 445.104 183.655 448.006 162.877C450.603 144.376 444.176 137.382 424.384 142.751ZM424.384 142.751L419.697 144.013L412.051 198.557L416.737 197.28C436.529 191.911 445.104 183.655 448.006 162.877C450.603 144.376 444.176 137.382 424.384 142.751ZM424.384 142.751L419.697 144.013L412.051 198.557L416.737 197.28C436.529 191.911 445.104 183.655 448.006 162.877C450.603 144.376 444.176 137.382 424.384 142.751ZM424.384 142.751L419.697 144.013L412.051 198.557L416.737 197.28C436.529 191.911 445.104 183.655 448.006 162.877C450.603 144.376 444.176 137.382 424.384 142.751ZM424.384 142.751L419.697 144.013L412.051 198.557L416.737 197.28C436.529 191.911 445.104 183.655 448.006 162.877C450.603 144.376 444.176 137.382 424.384 142.751ZM424.384 142.751L419.697 144.013L412.051 198.557L416.737 197.28C436.529 191.911 445.104 183.655 448.006 162.877C450.603 144.376 444.176 137.382 424.384 142.751Z" fill="#8200FF"/>
<path d="M698.388 110.364L692.511 152.226L736.099 140.4L730.643 179.36L687.056 191.186L680.729 236.298L739.393 220.38L733.894 259.659L626.941 288.679L655.613 84.1733L762.565 55.1675L757.066 94.4466L698.388 110.364Z" fill="white"/>
<path d="M631.106 162.325L630.381 167.52L582.44 180.536L584.355 166.896C586.895 148.715 585.516 137.861 571.108 141.764C556.685 145.682 552.027 158.175 549.488 176.357L539.418 248.095C536.879 266.276 539.259 276.868 553.333 273.038C567.756 269.134 573.081 256.453 575.635 238.271L576.041 235.355L560.617 239.534L565.623 203.824L627.653 187.007L612.853 292.496L580.002 301.405L578.856 284.225C571.543 299.65 555.495 310.547 538.736 315.103C496.817 326.464 483.555 299.157 491.797 240.404L495.715 212.487C503.956 153.735 528.246 116.241 576.52 103.139C624.461 90.1371 637.81 114.616 631.106 162.325Z" fill="white"/>
<path d="M497.064 144.26C502.172 107.912 484.412 89.6147 437.138 102.442L376.444 118.911L347.772 323.403L396.38 310.213L406.77 236.211L413.139 234.47C428.563 230.291 432.176 238.997 430.45 258.194C428.331 282.498 427.315 294.324 428.912 301.39L477.52 288.201C474.153 280.061 475.938 269.584 478.042 243.089C479.972 217.914 474.734 204.651 453.288 205.783C475.241 196.395 492.566 176.4 497.064 144.26ZM448.006 162.876C445.104 183.655 436.529 191.911 416.738 197.28L412.051 198.557L419.698 144.013L424.384 142.751C444.176 137.382 450.604 144.376 448.006 162.876Z" fill="white"/>
<path d="M362.369 122.727L343.942 254.189C337.47 300.273 317.534 334.416 265.559 348.519C213.585 362.609 202.021 337.028 208.478 290.929L226.92 159.467L277.544 145.74L258.566 281.091C255.649 301.869 255.983 313.332 271.073 309.24C286.149 305.149 289.849 292.598 292.765 271.819L311.744 136.468L362.369 122.727Z" fill="white"/>
<path d="M204.328 223.993L203.196 232.105L159.942 243.843L161.132 235.398C163.454 218.842 159.217 212.182 147.145 215.461C136.756 218.276 130.386 226.881 128.848 237.909C127.382 248.298 132.504 253.159 141.849 255.626L160.16 260.646C185.944 267.698 200.7 277.434 196.246 309.24C190.689 348.839 162.685 376.118 125.133 386.304C87.5818 396.49 64.9174 383.271 71.0551 339.451L72.1578 331.673L115.412 319.935L114.265 328.046C112.132 343.296 117.429 351.552 130.502 347.997C141.892 344.907 148.799 337.1 150.395 325.739C152.035 314.058 144.954 311.606 133.172 308.239L116.718 303.654C95.9395 297.734 78.5422 288.404 83.461 253.348C88.554 217 116.311 186.978 152.528 177.155C191.081 166.693 210.204 182.117 204.328 223.993Z" fill="white"/>
</g>
<defs>
<clipPath id="clip0_2048_9622">
<rect width="824" height="459" fill="white"/>
</clipPath>
</defs>
</svg>
